<mxfile host="app.diagrams.net" modified="2024-05-29T18:08:56.858Z" agent="Mozilla/5.0 (Windows NT 10.0; Win64; x64) AppleWebKit/537.36 (KHTML, like Gecko) Chrome/122.0.0.0 YaBrowser/24.4.0.0 Safari/537.36" etag="GQ0hT6AZ7BS9MgfYJ6-O" version="24.4.9" type="device">
  <diagram name="Страница — 1" id="G3IqDvQ1uWKMUXLfdOE-">
    <mxGraphModel dx="1386" dy="1970" grid="1" gridSize="10" guides="1" tooltips="1" connect="1" arrows="1" fold="1" page="1" pageScale="1" pageWidth="827" pageHeight="1169" math="0" shadow="0">
      <root>
        <mxCell id="0" />
        <mxCell id="1" parent="0" />
        <mxCell id="GwarYRG6ZzMJxhp5LQ7H-1" value="Не авторизованный&amp;nbsp;&lt;div&gt;пользователь&lt;/div&gt;" style="shape=umlActor;verticalLabelPosition=bottom;verticalAlign=top;html=1;outlineConnect=0;" parent="1" vertex="1">
          <mxGeometry x="85" y="20" width="30" height="60" as="geometry" />
        </mxCell>
        <mxCell id="GwarYRG6ZzMJxhp5LQ7H-2" value="Авторизованный&amp;nbsp;&lt;div&gt;пользователь&lt;/div&gt;" style="shape=umlActor;verticalLabelPosition=bottom;verticalAlign=top;html=1;outlineConnect=0;" parent="1" vertex="1">
          <mxGeometry x="40" y="-250" width="30" height="60" as="geometry" />
        </mxCell>
        <mxCell id="GwarYRG6ZzMJxhp5LQ7H-3" value="Просмотр сайта" style="ellipse;whiteSpace=wrap;html=1;" parent="1" vertex="1">
          <mxGeometry x="220" y="130" width="120" height="80" as="geometry" />
        </mxCell>
        <mxCell id="GwarYRG6ZzMJxhp5LQ7H-4" value="Регистрация/Авторизация" style="ellipse;whiteSpace=wrap;html=1;" parent="1" vertex="1">
          <mxGeometry x="280" y="30" width="120" height="80" as="geometry" />
        </mxCell>
        <mxCell id="GwarYRG6ZzMJxhp5LQ7H-5" value="Поиск нужного&amp;nbsp;&lt;div&gt;рейса&lt;/div&gt;" style="ellipse;whiteSpace=wrap;html=1;" parent="1" vertex="1">
          <mxGeometry x="190" y="-70" width="120" height="80" as="geometry" />
        </mxCell>
        <mxCell id="GwarYRG6ZzMJxhp5LQ7H-6" value="Возможность забронировать места" style="ellipse;whiteSpace=wrap;html=1;" parent="1" vertex="1">
          <mxGeometry x="310" y="-230" width="120" height="80" as="geometry" />
        </mxCell>
        <mxCell id="GwarYRG6ZzMJxhp5LQ7H-7" value="Оплата и подтверждение" style="ellipse;whiteSpace=wrap;html=1;" parent="1" vertex="1">
          <mxGeometry x="240" y="-310" width="120" height="80" as="geometry" />
        </mxCell>
        <mxCell id="GwarYRG6ZzMJxhp5LQ7H-8" value="Управление бронированием" style="ellipse;whiteSpace=wrap;html=1;" parent="1" vertex="1">
          <mxGeometry x="160" y="-390" width="120" height="80" as="geometry" />
        </mxCell>
        <mxCell id="GwarYRG6ZzMJxhp5LQ7H-9" value="" style="endArrow=classic;html=1;rounded=0;entryX=0.1;entryY=0.763;entryDx=0;entryDy=0;entryPerimeter=0;" parent="1" target="GwarYRG6ZzMJxhp5LQ7H-5" edge="1">
          <mxGeometry width="50" height="50" relative="1" as="geometry">
            <mxPoint x="160" y="50" as="sourcePoint" />
            <mxPoint x="220" y="-10" as="targetPoint" />
          </mxGeometry>
        </mxCell>
        <mxCell id="GwarYRG6ZzMJxhp5LQ7H-10" value="" style="endArrow=classic;html=1;rounded=0;entryX=-0.008;entryY=0.388;entryDx=0;entryDy=0;entryPerimeter=0;" parent="1" target="GwarYRG6ZzMJxhp5LQ7H-4" edge="1">
          <mxGeometry width="50" height="50" relative="1" as="geometry">
            <mxPoint x="160" y="50" as="sourcePoint" />
            <mxPoint x="220" as="targetPoint" />
          </mxGeometry>
        </mxCell>
        <mxCell id="GwarYRG6ZzMJxhp5LQ7H-11" value="" style="endArrow=classic;html=1;rounded=0;entryX=0;entryY=0;entryDx=0;entryDy=0;" parent="1" target="GwarYRG6ZzMJxhp5LQ7H-3" edge="1">
          <mxGeometry width="50" height="50" relative="1" as="geometry">
            <mxPoint x="160" y="50" as="sourcePoint" />
            <mxPoint x="210" y="20" as="targetPoint" />
          </mxGeometry>
        </mxCell>
        <mxCell id="GwarYRG6ZzMJxhp5LQ7H-12" value="" style="endArrow=classic;html=1;rounded=0;entryX=0;entryY=0;entryDx=0;entryDy=0;" parent="1" target="GwarYRG6ZzMJxhp5LQ7H-5" edge="1">
          <mxGeometry width="50" height="50" relative="1" as="geometry">
            <mxPoint x="130" y="-220" as="sourcePoint" />
            <mxPoint x="210" y="-190" as="targetPoint" />
          </mxGeometry>
        </mxCell>
        <mxCell id="GwarYRG6ZzMJxhp5LQ7H-13" value="" style="endArrow=classic;html=1;rounded=0;entryX=0;entryY=0.5;entryDx=0;entryDy=0;" parent="1" target="GwarYRG6ZzMJxhp5LQ7H-6" edge="1">
          <mxGeometry width="50" height="50" relative="1" as="geometry">
            <mxPoint x="130" y="-220" as="sourcePoint" />
            <mxPoint x="210" y="-190" as="targetPoint" />
          </mxGeometry>
        </mxCell>
        <mxCell id="GwarYRG6ZzMJxhp5LQ7H-14" value="" style="endArrow=classic;html=1;rounded=0;entryX=0.097;entryY=0.811;entryDx=0;entryDy=0;entryPerimeter=0;" parent="1" target="GwarYRG6ZzMJxhp5LQ7H-7" edge="1">
          <mxGeometry width="50" height="50" relative="1" as="geometry">
            <mxPoint x="130" y="-220" as="sourcePoint" />
            <mxPoint x="210" y="-190" as="targetPoint" />
          </mxGeometry>
        </mxCell>
        <mxCell id="GwarYRG6ZzMJxhp5LQ7H-15" value="" style="endArrow=classic;html=1;rounded=0;entryX=0.5;entryY=1;entryDx=0;entryDy=0;" parent="1" target="GwarYRG6ZzMJxhp5LQ7H-8" edge="1">
          <mxGeometry width="50" height="50" relative="1" as="geometry">
            <mxPoint x="130" y="-220" as="sourcePoint" />
            <mxPoint x="210" y="-190" as="targetPoint" />
          </mxGeometry>
        </mxCell>
        <mxCell id="GwarYRG6ZzMJxhp5LQ7H-16" value="Обращение в поддержку" style="ellipse;whiteSpace=wrap;html=1;" parent="1" vertex="1">
          <mxGeometry x="240" y="-150" width="120" height="80" as="geometry" />
        </mxCell>
        <mxCell id="GwarYRG6ZzMJxhp5LQ7H-17" value="" style="endArrow=classic;html=1;rounded=0;entryX=0;entryY=0;entryDx=0;entryDy=0;" parent="1" target="GwarYRG6ZzMJxhp5LQ7H-16" edge="1">
          <mxGeometry width="50" height="50" relative="1" as="geometry">
            <mxPoint x="130" y="-220" as="sourcePoint" />
            <mxPoint x="180" y="-270" as="targetPoint" />
          </mxGeometry>
        </mxCell>
        <mxCell id="GwarYRG6ZzMJxhp5LQ7H-18" value="&lt;span style=&quot;text-wrap: wrap;&quot;&gt;Менеджер по технической поддержке&lt;/span&gt;" style="shape=umlActor;verticalLabelPosition=bottom;verticalAlign=top;html=1;outlineConnect=0;" parent="1" vertex="1">
          <mxGeometry x="550" y="-150" width="30" height="60" as="geometry" />
        </mxCell>
        <mxCell id="GwarYRG6ZzMJxhp5LQ7H-19" value="" style="endArrow=classic;html=1;rounded=0;entryX=1;entryY=0.5;entryDx=0;entryDy=0;" parent="1" target="GwarYRG6ZzMJxhp5LQ7H-16" edge="1">
          <mxGeometry width="50" height="50" relative="1" as="geometry">
            <mxPoint x="520" y="-110" as="sourcePoint" />
            <mxPoint x="570" y="-160" as="targetPoint" />
          </mxGeometry>
        </mxCell>
        <mxCell id="GwarYRG6ZzMJxhp5LQ7H-20" value="&lt;span style=&quot;text-wrap: wrap;&quot;&gt;Менеджер по продаже билетов&lt;/span&gt;" style="shape=umlActor;verticalLabelPosition=bottom;verticalAlign=top;html=1;outlineConnect=0;" parent="1" vertex="1">
          <mxGeometry x="550" y="-310" width="30" height="60" as="geometry" />
        </mxCell>
        <mxCell id="GwarYRG6ZzMJxhp5LQ7H-21" value="" style="endArrow=classic;html=1;rounded=0;entryX=1;entryY=0.5;entryDx=0;entryDy=0;" parent="1" target="GwarYRG6ZzMJxhp5LQ7H-7" edge="1">
          <mxGeometry width="50" height="50" relative="1" as="geometry">
            <mxPoint x="530" y="-240" as="sourcePoint" />
            <mxPoint x="570" y="-370" as="targetPoint" />
          </mxGeometry>
        </mxCell>
      </root>
    </mxGraphModel>
  </diagram>
</mxfile>
